<svg xmlns="http://www.w3.org/2000/svg" version="1.1" xmlns:xlink="http://www.w3.org/1999/xlink" xmlns:svgjs="http://svgjs.com/svgjs" width="1440" height="560" preserveAspectRatio="none" viewBox="0 0 1440 560"><g mask="url(&quot;#SvgjsMask1001&quot;)" fill="none"><rect width="1440" height="560" x="0" y="0" fill="rgba(30, 41, 59, 1)"></rect><path d="M104.01 108.99L168.97 146.49L168.97 221.49L104.01 258.99L39.06 221.49L39.06 146.49zM168.97 -3.51L233.92 33.99L233.92 108.99L168.97 146.49L104.01 108.99L104.01 33.99zM233.92 558.99L298.88 596.49L298.88 671.49L233.92 708.99L168.97 671.49L168.97 596.49zM298.88 221.49L363.83 258.99L363.83 333.99L298.88 371.49L233.92 333.99L233.92 258.99zM363.83 333.99L428.78 371.49L428.78 446.49L363.83 483.99L298.88 446.49L298.88 371.49zM428.78 221.49L493.74 258.99L493.74 333.99L428.78 371.49L363.83 333.99L363.83 258.99zM753.55 108.99L818.51 146.49L818.51 221.49L753.55 258.99L688.6 221.49L688.6 146.49zM883.46 108.99L948.41 146.49L948.41 221.49L883.46 258.99L818.5 221.49L818.5 146.49zM883.46 333.99L948.41 371.49L948.41 446.49L883.46 483.99L818.5 446.49L818.5 371.49zM818.5 446.49L883.46 483.99L883.46 558.99L818.5 596.49L753.55 558.99L753.55 483.99zM883.46 558.99L948.41 596.49L948.41 671.49L883.46 708.99L818.5 671.49L818.5 596.49zM948.41 -3.51L1013.37 33.99L1013.37 108.99L948.41 146.49L883.46 108.99L883.46 33.99zM948.41 221.49L1013.37 258.99L1013.37 333.99L948.41 371.49L883.46 333.99L883.46 258.99zM948.41 446.49L1013.37 483.99L1013.37 558.99L948.41 596.49L883.46 558.99L883.46 483.99zM1078.32 221.49L1143.27 258.99L1143.27 333.99L1078.32 371.49L1013.37 333.99L1013.37 258.99zM1403.09 333.99L1468.04 371.49L1468.04 446.49L1403.09 483.99L1338.13 446.49L1338.13 371.49zM1533 108.99L1597.95 146.49L1597.95 221.49L1533 258.99L1468.04 221.49L1468.04 146.49zM1468.04 221.49L1533 258.99L1533 333.99L1468.04 371.49L1403.09 333.99L1403.09 258.99zM1468.04 446.49L1533 483.99L1533 558.99L1468.04 596.49L1403.09 558.99L1403.09 483.99z" stroke="#03305d" stroke-width="2"></path><path d="M96.51 108.99 a7.5 7.5 0 1 0 15 0 a7.5 7.5 0 1 0 -15 0zM161.47 146.49 a7.5 7.5 0 1 0 15 0 a7.5 7.5 0 1 0 -15 0zM161.47 221.49 a7.5 7.5 0 1 0 15 0 a7.5 7.5 0 1 0 -15 0zM96.51 258.99 a7.5 7.5 0 1 0 15 0 a7.5 7.5 0 1 0 -15 0zM31.56 221.49 a7.5 7.5 0 1 0 15 0 a7.5 7.5 0 1 0 -15 0zM31.56 146.49 a7.5 7.5 0 1 0 15 0 a7.5 7.5 0 1 0 -15 0zM161.47 -3.51 a7.5 7.5 0 1 0 15 0 a7.5 7.5 0 1 0 -15 0zM226.42 33.99 a7.5 7.5 0 1 0 15 0 a7.5 7.5 0 1 0 -15 0zM226.42 108.99 a7.5 7.5 0 1 0 15 0 a7.5 7.5 0 1 0 -15 0zM96.51 33.99 a7.5 7.5 0 1 0 15 0 a7.5 7.5 0 1 0 -15 0zM226.42 558.99 a7.5 7.5 0 1 0 15 0 a7.5 7.5 0 1 0 -15 0zM291.38 596.49 a7.5 7.5 0 1 0 15 0 a7.5 7.5 0 1 0 -15 0zM291.38 671.49 a7.5 7.5 0 1 0 15 0 a7.5 7.5 0 1 0 -15 0zM226.42 708.99 a7.5 7.5 0 1 0 15 0 a7.5 7.5 0 1 0 -15 0zM161.47 671.49 a7.5 7.5 0 1 0 15 0 a7.5 7.5 0 1 0 -15 0zM161.47 596.49 a7.5 7.5 0 1 0 15 0 a7.5 7.5 0 1 0 -15 0zM291.38 221.49 a7.5 7.5 0 1 0 15 0 a7.5 7.5 0 1 0 -15 0zM356.33 258.99 a7.5 7.5 0 1 0 15 0 a7.5 7.5 0 1 0 -15 0zM356.33 333.99 a7.5 7.5 0 1 0 15 0 a7.5 7.5 0 1 0 -15 0zM291.38 371.49 a7.5 7.5 0 1 0 15 0 a7.5 7.5 0 1 0 -15 0zM226.42 333.99 a7.5 7.5 0 1 0 15 0 a7.5 7.5 0 1 0 -15 0zM226.42 258.99 a7.5 7.5 0 1 0 15 0 a7.5 7.5 0 1 0 -15 0zM421.28 371.49 a7.5 7.5 0 1 0 15 0 a7.5 7.5 0 1 0 -15 0zM421.28 446.49 a7.5 7.5 0 1 0 15 0 a7.5 7.5 0 1 0 -15 0zM356.33 483.99 a7.5 7.5 0 1 0 15 0 a7.5 7.5 0 1 0 -15 0zM291.38 446.49 a7.5 7.5 0 1 0 15 0 a7.5 7.5 0 1 0 -15 0zM421.28 221.49 a7.5 7.5 0 1 0 15 0 a7.5 7.5 0 1 0 -15 0zM486.24 258.99 a7.5 7.5 0 1 0 15 0 a7.5 7.5 0 1 0 -15 0zM486.24 333.99 a7.5 7.5 0 1 0 15 0 a7.5 7.5 0 1 0 -15 0zM746.05 108.99 a7.5 7.5 0 1 0 15 0 a7.5 7.5 0 1 0 -15 0zM811.01 146.49 a7.5 7.5 0 1 0 15 0 a7.5 7.5 0 1 0 -15 0zM811.01 221.49 a7.5 7.5 0 1 0 15 0 a7.5 7.5 0 1 0 -15 0zM746.05 258.99 a7.5 7.5 0 1 0 15 0 a7.5 7.5 0 1 0 -15 0zM681.1 221.49 a7.5 7.5 0 1 0 15 0 a7.5 7.5 0 1 0 -15 0zM681.1 146.49 a7.5 7.5 0 1 0 15 0 a7.5 7.5 0 1 0 -15 0zM875.96 108.99 a7.5 7.5 0 1 0 15 0 a7.5 7.5 0 1 0 -15 0zM940.91 146.49 a7.5 7.5 0 1 0 15 0 a7.5 7.5 0 1 0 -15 0zM940.91 221.49 a7.5 7.5 0 1 0 15 0 a7.5 7.5 0 1 0 -15 0zM875.96 258.99 a7.5 7.5 0 1 0 15 0 a7.5 7.5 0 1 0 -15 0zM811 221.49 a7.5 7.5 0 1 0 15 0 a7.5 7.5 0 1 0 -15 0zM811 146.49 a7.5 7.5 0 1 0 15 0 a7.5 7.5 0 1 0 -15 0zM875.96 333.99 a7.5 7.5 0 1 0 15 0 a7.5 7.5 0 1 0 -15 0zM940.91 371.49 a7.5 7.5 0 1 0 15 0 a7.5 7.5 0 1 0 -15 0zM940.91 446.49 a7.5 7.5 0 1 0 15 0 a7.5 7.5 0 1 0 -15 0zM875.96 483.99 a7.5 7.5 0 1 0 15 0 a7.5 7.5 0 1 0 -15 0zM811 446.49 a7.5 7.5 0 1 0 15 0 a7.5 7.5 0 1 0 -15 0zM811 371.49 a7.5 7.5 0 1 0 15 0 a7.5 7.5 0 1 0 -15 0zM875.96 558.99 a7.5 7.5 0 1 0 15 0 a7.5 7.5 0 1 0 -15 0zM811 596.49 a7.5 7.5 0 1 0 15 0 a7.5 7.5 0 1 0 -15 0zM746.05 558.99 a7.5 7.5 0 1 0 15 0 a7.5 7.5 0 1 0 -15 0zM746.05 483.99 a7.5 7.5 0 1 0 15 0 a7.5 7.5 0 1 0 -15 0zM940.91 596.49 a7.5 7.5 0 1 0 15 0 a7.5 7.5 0 1 0 -15 0zM940.91 671.49 a7.5 7.5 0 1 0 15 0 a7.5 7.5 0 1 0 -15 0zM875.96 708.99 a7.5 7.5 0 1 0 15 0 a7.5 7.5 0 1 0 -15 0zM811 671.49 a7.5 7.5 0 1 0 15 0 a7.5 7.5 0 1 0 -15 0zM940.91 -3.51 a7.5 7.5 0 1 0 15 0 a7.5 7.5 0 1 0 -15 0zM1005.87 33.99 a7.5 7.5 0 1 0 15 0 a7.5 7.5 0 1 0 -15 0zM1005.87 108.99 a7.5 7.5 0 1 0 15 0 a7.5 7.5 0 1 0 -15 0zM875.96 33.99 a7.5 7.5 0 1 0 15 0 a7.5 7.5 0 1 0 -15 0zM1005.87 258.99 a7.5 7.5 0 1 0 15 0 a7.5 7.5 0 1 0 -15 0zM1005.87 333.99 a7.5 7.5 0 1 0 15 0 a7.5 7.5 0 1 0 -15 0zM1005.87 483.99 a7.5 7.5 0 1 0 15 0 a7.5 7.5 0 1 0 -15 0zM1005.87 558.99 a7.5 7.5 0 1 0 15 0 a7.5 7.5 0 1 0 -15 0zM1070.82 221.49 a7.5 7.5 0 1 0 15 0 a7.5 7.5 0 1 0 -15 0zM1135.77 258.99 a7.5 7.5 0 1 0 15 0 a7.5 7.5 0 1 0 -15 0zM1135.77 333.99 a7.5 7.5 0 1 0 15 0 a7.5 7.5 0 1 0 -15 0zM1070.82 371.49 a7.5 7.5 0 1 0 15 0 a7.5 7.5 0 1 0 -15 0zM1395.59 333.99 a7.5 7.5 0 1 0 15 0 a7.5 7.5 0 1 0 -15 0zM1460.54 371.49 a7.5 7.5 0 1 0 15 0 a7.5 7.5 0 1 0 -15 0zM1460.54 446.49 a7.5 7.5 0 1 0 15 0 a7.5 7.5 0 1 0 -15 0zM1395.59 483.99 a7.5 7.5 0 1 0 15 0 a7.5 7.5 0 1 0 -15 0zM1330.63 446.49 a7.5 7.5 0 1 0 15 0 a7.5 7.5 0 1 0 -15 0zM1330.63 371.49 a7.5 7.5 0 1 0 15 0 a7.5 7.5 0 1 0 -15 0zM1525.5 108.99 a7.5 7.5 0 1 0 15 0 a7.5 7.5 0 1 0 -15 0zM1590.45 146.49 a7.5 7.5 0 1 0 15 0 a7.5 7.5 0 1 0 -15 0zM1590.45 221.49 a7.5 7.5 0 1 0 15 0 a7.5 7.5 0 1 0 -15 0zM1525.5 258.99 a7.5 7.5 0 1 0 15 0 a7.5 7.5 0 1 0 -15 0zM1460.54 221.49 a7.5 7.5 0 1 0 15 0 a7.5 7.5 0 1 0 -15 0zM1460.54 146.49 a7.5 7.5 0 1 0 15 0 a7.5 7.5 0 1 0 -15 0zM1525.5 333.99 a7.5 7.5 0 1 0 15 0 a7.5 7.5 0 1 0 -15 0zM1395.59 258.99 a7.5 7.5 0 1 0 15 0 a7.5 7.5 0 1 0 -15 0zM1525.5 483.99 a7.5 7.5 0 1 0 15 0 a7.5 7.5 0 1 0 -15 0zM1525.5 558.99 a7.5 7.5 0 1 0 15 0 a7.5 7.5 0 1 0 -15 0zM1460.54 596.49 a7.5 7.5 0 1 0 15 0 a7.5 7.5 0 1 0 -15 0zM1395.59 558.99 a7.5 7.5 0 1 0 15 0 a7.5 7.5 0 1 0 -15 0z" fill="#03305d"></path><path d="M81.97 43.19L125.28 68.19L125.28 118.19L81.97 143.19L38.67 118.19L38.67 68.19zM81.97 193.19L125.28 218.19L125.28 268.19L81.97 293.19L38.67 268.19L38.67 218.19zM38.67 268.19L81.97 293.19L81.97 343.19L38.67 368.19L-4.63 343.19L-4.63 293.19zM81.97 343.19L125.28 368.19L125.28 418.19L81.97 443.19L38.67 418.19L38.67 368.19zM255.18 193.19L298.49 218.19L298.49 268.19L255.18 293.19L211.88 268.19L211.88 218.19zM341.79 43.19L385.09 68.19L385.09 118.19L341.79 143.19L298.49 118.19L298.49 68.19zM341.79 343.19L385.09 368.19L385.09 418.19L341.79 443.19L298.49 418.19L298.49 368.19zM341.79 493.19L385.09 518.19L385.09 568.19L341.79 593.19L298.49 568.19L298.49 518.19zM385.09 -31.81L428.39 -6.81L428.39 43.19L385.09 68.19L341.79 43.19L341.79 -6.81zM471.7 -31.81L515 -6.81L515 43.19L471.7 68.19L428.39 43.19L428.39 -6.81zM471.7 268.19L515 293.19L515 343.19L471.7 368.19L428.39 343.19L428.39 293.19zM515 343.19L558.3 368.19L558.3 418.19L515 443.19L471.7 418.19L471.7 368.19zM601.6 43.19L644.9 68.19L644.9 118.19L601.6 143.19L558.3 118.19L558.3 68.19zM688.21 43.19L731.51 68.19L731.51 118.19L688.21 143.19L644.9 118.19L644.9 68.19zM688.21 343.19L731.51 368.19L731.51 418.19L688.21 443.19L644.9 418.19L644.9 368.19zM688.21 493.19L731.51 518.19L731.51 568.19L688.21 593.19L644.9 568.19L644.9 518.19zM774.81 43.19L818.12 68.19L818.12 118.19L774.81 143.19L731.51 118.19L731.51 68.19zM861.42 343.19L904.72 368.19L904.72 418.19L861.42 443.19L818.12 418.19L818.12 368.19zM861.42 493.19L904.72 518.19L904.72 568.19L861.42 593.19L818.12 568.19L818.12 518.19zM948.02 343.19L991.33 368.19L991.33 418.19L948.02 443.19L904.72 418.19L904.72 368.19zM948.02 493.19L991.33 518.19L991.33 568.19L948.02 593.19L904.72 568.19L904.72 518.19zM991.33 -31.81L1034.63 -6.81L1034.63 43.19L991.33 68.19L948.02 43.19L948.02 -6.81zM1034.63 193.19L1077.93 218.19L1077.93 268.19L1034.63 293.19L991.33 268.19L991.33 218.19zM991.33 418.19L1034.63 443.19L1034.63 493.19L991.33 518.19L948.02 493.19L948.02 443.19zM1077.93 268.19L1121.23 293.19L1121.23 343.19L1077.93 368.19L1034.63 343.19L1034.63 293.19zM1121.23 493.19L1164.54 518.19L1164.54 568.19L1121.23 593.19L1077.93 568.19L1077.93 518.19zM1164.54 -31.81L1207.84 -6.81L1207.84 43.19L1164.54 68.19L1121.23 43.19L1121.23 -6.81zM1164.54 118.19L1207.84 143.19L1207.84 193.19L1164.54 218.19L1121.23 193.19L1121.23 143.19zM1381.05 43.19L1424.35 68.19L1424.35 118.19L1381.05 143.19L1337.75 118.19L1337.75 68.19zM1337.75 418.19L1381.05 443.19L1381.05 493.19L1337.75 518.19L1294.44 493.19L1294.44 443.19zM1467.65 43.19L1510.96 68.19L1510.96 118.19L1467.65 143.19L1424.35 118.19L1424.35 68.19z" stroke="rgba(6, 80, 156, 0.93)" stroke-width="2"></path></g><defs><mask id="SvgjsMask1001"><rect width="1440" height="560" fill="#ffffff"></rect></mask></defs></svg>