<svg xmlns="http://www.w3.org/2000/svg" version="1.1" xmlns:xlink="http://www.w3.org/1999/xlink" xmlns:svgjs="http://svgjs.com/svgjs" width="1440" height="560" preserveAspectRatio="none" viewBox="0 0 1440 560"><g mask="url(&quot;#SvgjsMask1036&quot;)" fill="none"><rect width="1440" height="560" x="0" y="0" fill="rgba(14, 42, 71, 1)"></rect><path d="M-95.99 388.27L-95.99 388.27" stroke="rgba(19, 46, 101, 1)" stroke-width="1.5"></path><path d="M-95.99 388.27L-71.88 540.19" stroke="rgba(19, 46, 101, 1)" stroke-width="1.5"></path><path d="M-95.99 388.27L64.71 363.19" stroke="rgba(19, 46, 101, 1)" stroke-width="1.5"></path><path d="M-95.99 388.27L75.81 491.96" stroke="rgba(19, 46, 101, 1)" stroke-width="1.5"></path><path d="M-95.99 388.27L-59.98 643.08" stroke="rgba(19, 46, 101, 1)" stroke-width="1.5"></path><path d="M-95.99 388.27L195.89 487.51" stroke="rgba(19, 46, 101, 1)" stroke-width="1.5"></path><path d="M-95.99 388.27L252.89 361.17" stroke="rgba(19, 46, 101, 1)" stroke-width="1.5"></path><path d="M-71.88 540.19L-71.88 540.19" stroke="rgba(19, 46, 101, 1)" stroke-width="1.5"></path><path d="M-71.88 540.19L-59.98 643.08" stroke="rgba(19, 46, 101, 1)" stroke-width="1.5"></path><path d="M-59.98 643.08L-59.98 643.08" stroke="rgba(19, 46, 101, 1)" stroke-width="1.5"></path><path d="M-59.98 643.08L85.44 687.62" stroke="rgba(19, 46, 101, 1)" stroke-width="1.5"></path><path d="M-59.98 643.08L75.81 491.96" stroke="rgba(19, 46, 101, 1)" stroke-width="1.5"></path><path d="M-59.98 643.08L195.89 487.51" stroke="rgba(19, 46, 101, 1)" stroke-width="1.5"></path><path d="M64.71 363.19L64.71 363.19" stroke="rgba(19, 46, 101, 1)" stroke-width="1.5"></path><path d="M64.71 363.19L75.81 491.96" stroke="rgba(19, 46, 101, 1)" stroke-width="1.5"></path><path d="M64.71 363.19L195.89 487.51" stroke="rgba(19, 46, 101, 1)" stroke-width="1.5"></path><path d="M64.71 363.19L252.89 361.17" stroke="rgba(19, 46, 101, 1)" stroke-width="1.5"></path><path d="M64.71 363.19L-71.88 540.19" stroke="rgba(19, 46, 101, 1)" stroke-width="1.5"></path><path d="M75.81 491.96L75.81 491.96" stroke="rgba(19, 46, 101, 1)" stroke-width="1.5"></path><path d="M75.81 491.96L195.89 487.51" stroke="rgba(19, 46, 101, 1)" stroke-width="1.5"></path><path d="M75.81 491.96L-71.88 540.19" stroke="rgba(19, 46, 101, 1)" stroke-width="1.5"></path><path d="M85.44 687.62L85.44 687.62" stroke="rgba(19, 46, 101, 1)" stroke-width="1.5"></path><path d="M85.44 687.62L260.71 711.72" stroke="rgba(19, 46, 101, 1)" stroke-width="1.5"></path><path d="M252.89 361.17L252.89 361.17" stroke="rgba(19, 46, 101, 1)" stroke-width="1.5"></path><path d="M252.89 361.17L340.51 393.9" stroke="rgba(19, 46, 101, 1)" stroke-width="1.5"></path><path d="M252.89 361.17L195.89 487.51" stroke="rgba(19, 46, 101, 1)" stroke-width="1.5"></path><path d="M252.89 361.17L351.12 541.01" stroke="rgba(19, 46, 101, 1)" stroke-width="1.5"></path><path d="M195.89 487.51L195.89 487.51" stroke="rgba(19, 46, 101, 1)" stroke-width="1.5"></path><path d="M195.89 487.51L351.12 541.01" stroke="rgba(19, 46, 101, 1)" stroke-width="1.5"></path><path d="M195.89 487.51L340.51 393.9" stroke="rgba(19, 46, 101, 1)" stroke-width="1.5"></path><path d="M260.71 711.72L260.71 711.72" stroke="rgba(19, 46, 101, 1)" stroke-width="1.5"></path><path d="M260.71 711.72L341.87 637.87" stroke="rgba(19, 46, 101, 1)" stroke-width="1.5"></path><path d="M260.71 711.72L351.12 541.01" stroke="rgba(19, 46, 101, 1)" stroke-width="1.5"></path><path d="M340.51 393.9L340.51 393.9" stroke="rgba(19, 46, 101, 1)" stroke-width="1.5"></path><path d="M340.51 393.9L351.12 541.01" stroke="rgba(19, 46, 101, 1)" stroke-width="1.5"></path><path d="M351.12 541.01L351.12 541.01" stroke="rgba(19, 46, 101, 1)" stroke-width="1.5"></path><path d="M351.12 541.01L341.87 637.87" stroke="rgba(19, 46, 101, 1)" stroke-width="1.5"></path><path d="M351.12 541.01L487.56 535.2" stroke="rgba(19, 46, 101, 1)" stroke-width="1.5"></path><path d="M341.87 637.87L341.87 637.87" stroke="rgba(19, 46, 101, 1)" stroke-width="1.5"></path><path d="M523.61 389.1L523.61 389.1" stroke="rgba(19, 46, 101, 1)" stroke-width="1.5"></path><path d="M523.61 389.1L487.56 535.2" stroke="rgba(19, 46, 101, 1)" stroke-width="1.5"></path><path d="M523.61 389.1L682.35 411.65" stroke="rgba(19, 46, 101, 1)" stroke-width="1.5"></path><path d="M523.61 389.1L340.51 393.9" stroke="rgba(19, 46, 101, 1)" stroke-width="1.5"></path><path d="M487.56 535.2L487.56 535.2" stroke="rgba(19, 46, 101, 1)" stroke-width="1.5"></path><path d="M487.56 535.2L550.37 673.34" stroke="rgba(19, 46, 101, 1)" stroke-width="1.5"></path><path d="M487.56 535.2L341.87 637.87" stroke="rgba(19, 46, 101, 1)" stroke-width="1.5"></path><path d="M487.56 535.2L340.51 393.9" stroke="rgba(19, 46, 101, 1)" stroke-width="1.5"></path><path d="M487.56 535.2L698.37 497.17" stroke="rgba(19, 46, 101, 1)" stroke-width="1.5"></path><path d="M550.37 673.34L550.37 673.34" stroke="rgba(19, 46, 101, 1)" stroke-width="1.5"></path><path d="M550.37 673.34L683.72 664.23" stroke="rgba(19, 46, 101, 1)" stroke-width="1.5"></path><path d="M662.56 238.06L662.56 238.06" stroke="rgba(19, 46, 101, 1)" stroke-width="1.5"></path><path d="M662.56 238.06L682.35 411.65" stroke="rgba(19, 46, 101, 1)" stroke-width="1.5"></path><path d="M662.56 238.06L847.28 235.86" stroke="rgba(19, 46, 101, 1)" stroke-width="1.5"></path><path d="M682.35 411.65L682.35 411.65" stroke="rgba(19, 46, 101, 1)" stroke-width="1.5"></path><path d="M682.35 411.65L698.37 497.17" stroke="rgba(19, 46, 101, 1)" stroke-width="1.5"></path><path d="M682.35 411.65L854.11 539.82" stroke="rgba(19, 46, 101, 1)" stroke-width="1.5"></path><path d="M682.35 411.65L487.56 535.2" stroke="rgba(19, 46, 101, 1)" stroke-width="1.5"></path><path d="M698.37 497.17L698.37 497.17" stroke="rgba(19, 46, 101, 1)" stroke-width="1.5"></path><path d="M698.37 497.17L854.11 539.82" stroke="rgba(19, 46, 101, 1)" stroke-width="1.5"></path><path d="M698.37 497.17L683.72 664.23" stroke="rgba(19, 46, 101, 1)" stroke-width="1.5"></path><path d="M698.37 497.17L523.61 389.1" stroke="rgba(19, 46, 101, 1)" stroke-width="1.5"></path><path d="M698.37 497.17L550.37 673.34" stroke="rgba(19, 46, 101, 1)" stroke-width="1.5"></path><path d="M683.72 664.23L683.72 664.23" stroke="rgba(19, 46, 101, 1)" stroke-width="1.5"></path><path d="M847.28 235.86L847.28 235.86" stroke="rgba(19, 46, 101, 1)" stroke-width="1.5"></path><path d="M847.28 235.86L960.37 259.23" stroke="rgba(19, 46, 101, 1)" stroke-width="1.5"></path><path d="M847.28 235.86L986.77 65.68" stroke="rgba(19, 46, 101, 1)" stroke-width="1.5"></path><path d="M854.11 539.82L854.11 539.82" stroke="rgba(19, 46, 101, 1)" stroke-width="1.5"></path><path d="M854.11 539.82L979.97 520.28" stroke="rgba(19, 46, 101, 1)" stroke-width="1.5"></path><path d="M973.18 -97.86L973.18 -97.86" stroke="rgba(19, 46, 101, 1)" stroke-width="1.5"></path><path d="M973.18 -97.86L1102.07 -85.71" stroke="rgba(19, 46, 101, 1)" stroke-width="1.5"></path><path d="M973.18 -97.86L986.77 65.68" stroke="rgba(19, 46, 101, 1)" stroke-width="1.5"></path><path d="M973.18 -97.86L1094.2 46.73" stroke="rgba(19, 46, 101, 1)" stroke-width="1.5"></path><path d="M973.18 -97.86L1286.77 -56.81" stroke="rgba(19, 46, 101, 1)" stroke-width="1.5"></path><path d="M986.77 65.68L986.77 65.68" stroke="rgba(19, 46, 101, 1)" stroke-width="1.5"></path><path d="M986.77 65.68L1094.2 46.73" stroke="rgba(19, 46, 101, 1)" stroke-width="1.5"></path><path d="M986.77 65.68L1102.07 -85.71" stroke="rgba(19, 46, 101, 1)" stroke-width="1.5"></path><path d="M960.37 259.23L960.37 259.23" stroke="rgba(19, 46, 101, 1)" stroke-width="1.5"></path><path d="M960.37 259.23L996.76 412.41" stroke="rgba(19, 46, 101, 1)" stroke-width="1.5"></path><path d="M960.37 259.23L1147.03 261.21" stroke="rgba(19, 46, 101, 1)" stroke-width="1.5"></path><path d="M960.37 259.23L986.77 65.68" stroke="rgba(19, 46, 101, 1)" stroke-width="1.5"></path><path d="M960.37 259.23L1122.21 370.16" stroke="rgba(19, 46, 101, 1)" stroke-width="1.5"></path><path d="M996.76 412.41L996.76 412.41" stroke="rgba(19, 46, 101, 1)" stroke-width="1.5"></path><path d="M996.76 412.41L979.97 520.28" stroke="rgba(19, 46, 101, 1)" stroke-width="1.5"></path><path d="M996.76 412.41L1122.21 370.16" stroke="rgba(19, 46, 101, 1)" stroke-width="1.5"></path><path d="M996.76 412.41L854.11 539.82" stroke="rgba(19, 46, 101, 1)" stroke-width="1.5"></path><path d="M996.76 412.41L1147.37 556.14" stroke="rgba(19, 46, 101, 1)" stroke-width="1.5"></path><path d="M996.76 412.41L1147.03 261.21" stroke="rgba(19, 46, 101, 1)" stroke-width="1.5"></path><path d="M979.97 520.28L979.97 520.28" stroke="rgba(19, 46, 101, 1)" stroke-width="1.5"></path><path d="M944.8 684.8L944.8 684.8" stroke="rgba(19, 46, 101, 1)" stroke-width="1.5"></path><path d="M944.8 684.8L1095.18 692.34" stroke="rgba(19, 46, 101, 1)" stroke-width="1.5"></path><path d="M944.8 684.8L979.97 520.28" stroke="rgba(19, 46, 101, 1)" stroke-width="1.5"></path><path d="M944.8 684.8L854.11 539.82" stroke="rgba(19, 46, 101, 1)" stroke-width="1.5"></path><path d="M944.8 684.8L1147.37 556.14" stroke="rgba(19, 46, 101, 1)" stroke-width="1.5"></path><path d="M944.8 684.8L683.72 664.23" stroke="rgba(19, 46, 101, 1)" stroke-width="1.5"></path><path d="M944.8 684.8L996.76 412.41" stroke="rgba(19, 46, 101, 1)" stroke-width="1.5"></path><path d="M1102.07 -85.71L1102.07 -85.71" stroke="rgba(19, 46, 101, 1)" stroke-width="1.5"></path><path d="M1102.07 -85.71L1094.2 46.73" stroke="rgba(19, 46, 101, 1)" stroke-width="1.5"></path><path d="M1102.07 -85.71L1286.77 -56.81" stroke="rgba(19, 46, 101, 1)" stroke-width="1.5"></path><path d="M1094.2 46.73L1094.2 46.73" stroke="rgba(19, 46, 101, 1)" stroke-width="1.5"></path><path d="M1094.2 46.73L1241.19 102.19" stroke="rgba(19, 46, 101, 1)" stroke-width="1.5"></path><path d="M1094.2 46.73L1286.77 -56.81" stroke="rgba(19, 46, 101, 1)" stroke-width="1.5"></path><path d="M1147.03 261.21L1147.03 261.21" stroke="rgba(19, 46, 101, 1)" stroke-width="1.5"></path><path d="M1147.03 261.21L1242.18 260.53" stroke="rgba(19, 46, 101, 1)" stroke-width="1.5"></path><path d="M1122.21 370.16L1122.21 370.16" stroke="rgba(19, 46, 101, 1)" stroke-width="1.5"></path><path d="M1122.21 370.16L1147.03 261.21" stroke="rgba(19, 46, 101, 1)" stroke-width="1.5"></path><path d="M1147.37 556.14L1147.37 556.14" stroke="rgba(19, 46, 101, 1)" stroke-width="1.5"></path><path d="M1147.37 556.14L1095.18 692.34" stroke="rgba(19, 46, 101, 1)" stroke-width="1.5"></path><path d="M1147.37 556.14L1299.82 561.38" stroke="rgba(19, 46, 101, 1)" stroke-width="1.5"></path><path d="M1147.37 556.14L979.97 520.28" stroke="rgba(19, 46, 101, 1)" stroke-width="1.5"></path><path d="M1147.37 556.14L1273.58 688" stroke="rgba(19, 46, 101, 1)" stroke-width="1.5"></path><path d="M1147.37 556.14L1122.21 370.16" stroke="rgba(19, 46, 101, 1)" stroke-width="1.5"></path><path d="M1147.37 556.14L1263.68 402.37" stroke="rgba(19, 46, 101, 1)" stroke-width="1.5"></path><path d="M1095.18 692.34L1095.18 692.34" stroke="rgba(19, 46, 101, 1)" stroke-width="1.5"></path><path d="M1286.77 -56.81L1286.77 -56.81" stroke="rgba(19, 46, 101, 1)" stroke-width="1.5"></path><path d="M1286.77 -56.81L1444.19 -66.98" stroke="rgba(19, 46, 101, 1)" stroke-width="1.5"></path><path d="M1286.77 -56.81L1241.19 102.19" stroke="rgba(19, 46, 101, 1)" stroke-width="1.5"></path><path d="M1286.77 -56.81L1441.98 64.64" stroke="rgba(19, 46, 101, 1)" stroke-width="1.5"></path><path d="M1241.19 102.19L1241.19 102.19" stroke="rgba(19, 46, 101, 1)" stroke-width="1.5"></path><path d="M1241.19 102.19L1242.18 260.53" stroke="rgba(19, 46, 101, 1)" stroke-width="1.5"></path><path d="M1242.18 260.53L1242.18 260.53" stroke="rgba(19, 46, 101, 1)" stroke-width="1.5"></path><path d="M1242.18 260.53L1263.68 402.37" stroke="rgba(19, 46, 101, 1)" stroke-width="1.5"></path><path d="M1242.18 260.53L1122.21 370.16" stroke="rgba(19, 46, 101, 1)" stroke-width="1.5"></path><path d="M1263.68 402.37L1263.68 402.37" stroke="rgba(19, 46, 101, 1)" stroke-width="1.5"></path><path d="M1299.82 561.38L1299.82 561.38" stroke="rgba(19, 46, 101, 1)" stroke-width="1.5"></path><path d="M1299.82 561.38L1412.58 546.44" stroke="rgba(19, 46, 101, 1)" stroke-width="1.5"></path><path d="M1299.82 561.38L1273.58 688" stroke="rgba(19, 46, 101, 1)" stroke-width="1.5"></path><path d="M1299.82 561.38L1396.33 687.54" stroke="rgba(19, 46, 101, 1)" stroke-width="1.5"></path><path d="M1273.58 688L1273.58 688" stroke="rgba(19, 46, 101, 1)" stroke-width="1.5"></path><path d="M1273.58 688L1396.33 687.54" stroke="rgba(19, 46, 101, 1)" stroke-width="1.5"></path><path d="M1444.19 -66.98L1444.19 -66.98" stroke="rgba(19, 46, 101, 1)" stroke-width="1.5"></path><path d="M1444.19 -66.98L1441.98 64.64" stroke="rgba(19, 46, 101, 1)" stroke-width="1.5"></path><path d="M1444.19 -66.98L1590.38 -90.51" stroke="rgba(19, 46, 101, 1)" stroke-width="1.5"></path><path d="M1444.19 -66.98L1611.76 61.32" stroke="rgba(19, 46, 101, 1)" stroke-width="1.5"></path><path d="M1441.98 64.64L1441.98 64.64" stroke="rgba(19, 46, 101, 1)" stroke-width="1.5"></path><path d="M1441.98 64.64L1400.36 201.75" stroke="rgba(19, 46, 101, 1)" stroke-width="1.5"></path><path d="M1441.98 64.64L1611.76 61.32" stroke="rgba(19, 46, 101, 1)" stroke-width="1.5"></path><path d="M1441.98 64.64L1562.53 218.55" stroke="rgba(19, 46, 101, 1)" stroke-width="1.5"></path><path d="M1400.36 201.75L1400.36 201.75" stroke="rgba(19, 46, 101, 1)" stroke-width="1.5"></path><path d="M1400.36 201.75L1562.53 218.55" stroke="rgba(19, 46, 101, 1)" stroke-width="1.5"></path><path d="M1400.36 201.75L1242.18 260.53" stroke="rgba(19, 46, 101, 1)" stroke-width="1.5"></path><path d="M1400.36 201.75L1241.19 102.19" stroke="rgba(19, 46, 101, 1)" stroke-width="1.5"></path><path d="M1450.58 412L1450.58 412" stroke="rgba(19, 46, 101, 1)" stroke-width="1.5"></path><path d="M1450.58 412L1412.58 546.44" stroke="rgba(19, 46, 101, 1)" stroke-width="1.5"></path><path d="M1450.58 412L1586.3 354.34" stroke="rgba(19, 46, 101, 1)" stroke-width="1.5"></path><path d="M1450.58 412L1558.74 514.72" stroke="rgba(19, 46, 101, 1)" stroke-width="1.5"></path><path d="M1450.58 412L1263.68 402.37" stroke="rgba(19, 46, 101, 1)" stroke-width="1.5"></path><path d="M1450.58 412L1299.82 561.38" stroke="rgba(19, 46, 101, 1)" stroke-width="1.5"></path><path d="M1450.58 412L1400.36 201.75" stroke="rgba(19, 46, 101, 1)" stroke-width="1.5"></path><path d="M1412.58 546.44L1412.58 546.44" stroke="rgba(19, 46, 101, 1)" stroke-width="1.5"></path><path d="M1412.58 546.44L1396.33 687.54" stroke="rgba(19, 46, 101, 1)" stroke-width="1.5"></path><path d="M1412.58 546.44L1558.74 514.72" stroke="rgba(19, 46, 101, 1)" stroke-width="1.5"></path><path d="M1412.58 546.44L1273.58 688" stroke="rgba(19, 46, 101, 1)" stroke-width="1.5"></path><path d="M1396.33 687.54L1396.33 687.54" stroke="rgba(19, 46, 101, 1)" stroke-width="1.5"></path><path d="M1396.33 687.54L1581.91 653.12" stroke="rgba(19, 46, 101, 1)" stroke-width="1.5"></path><path d="M1396.33 687.54L1558.74 514.72" stroke="rgba(19, 46, 101, 1)" stroke-width="1.5"></path><path d="M1396.33 687.54L1450.58 412" stroke="rgba(19, 46, 101, 1)" stroke-width="1.5"></path><path d="M1590.38 -90.51L1590.38 -90.51" stroke="rgba(19, 46, 101, 1)" stroke-width="1.5"></path><path d="M1590.38 -90.51L1611.76 61.32" stroke="rgba(19, 46, 101, 1)" stroke-width="1.5"></path><path d="M1590.38 -90.51L1441.98 64.64" stroke="rgba(19, 46, 101, 1)" stroke-width="1.5"></path><path d="M1590.38 -90.51L1286.77 -56.81" stroke="rgba(19, 46, 101, 1)" stroke-width="1.5"></path><path d="M1590.38 -90.51L1562.53 218.55" stroke="rgba(19, 46, 101, 1)" stroke-width="1.5"></path><path d="M1611.76 61.32L1611.76 61.32" stroke="rgba(19, 46, 101, 1)" stroke-width="1.5"></path><path d="M1611.76 61.32L1562.53 218.55" stroke="rgba(19, 46, 101, 1)" stroke-width="1.5"></path><path d="M1611.76 61.32L1400.36 201.75" stroke="rgba(19, 46, 101, 1)" stroke-width="1.5"></path><path d="M1562.53 218.55L1562.53 218.55" stroke="rgba(19, 46, 101, 1)" stroke-width="1.5"></path><path d="M1562.53 218.55L1586.3 354.34" stroke="rgba(19, 46, 101, 1)" stroke-width="1.5"></path><path d="M1586.3 354.34L1586.3 354.34" stroke="rgba(19, 46, 101, 1)" stroke-width="1.5"></path><path d="M1586.3 354.34L1558.74 514.72" stroke="rgba(19, 46, 101, 1)" stroke-width="1.5"></path><path d="M1586.3 354.34L1400.36 201.75" stroke="rgba(19, 46, 101, 1)" stroke-width="1.5"></path><path d="M1586.3 354.34L1412.58 546.44" stroke="rgba(19, 46, 101, 1)" stroke-width="1.5"></path><path d="M1558.74 514.72L1558.74 514.72" stroke="rgba(19, 46, 101, 1)" stroke-width="1.5"></path><path d="M1558.74 514.72L1581.91 653.12" stroke="rgba(19, 46, 101, 1)" stroke-width="1.5"></path><path d="M1581.91 653.12L1581.91 653.12" stroke="rgba(19, 46, 101, 1)" stroke-width="1.5"></path><path d="M1581.91 653.12L1412.58 546.44" stroke="rgba(19, 46, 101, 1)" stroke-width="1.5"></path><path d="M1581.91 653.12L1450.58 412" stroke="rgba(19, 46, 101, 1)" stroke-width="1.5"></path><path d="M1581.91 653.12L1299.82 561.38" stroke="rgba(19, 46, 101, 1)" stroke-width="1.5"></path><path d="M1581.91 653.12L1586.3 354.34" stroke="rgba(19, 46, 101, 1)" stroke-width="1.5"></path><circle r="5" cx="-95.99" cy="388.27" fill="rgba(19, 46, 101, 1)"></circle><circle r="5" cx="-71.88" cy="540.19" fill="rgba(19, 46, 101, 1)"></circle><circle r="5" cx="-59.98" cy="643.08" fill="rgba(19, 46, 101, 1)"></circle><circle r="5" cx="64.71" cy="363.19" fill="rgba(19, 46, 101, 1)"></circle><circle r="5" cx="75.81" cy="491.96" fill="rgba(19, 46, 101, 1)"></circle><circle r="5" cx="85.44" cy="687.62" fill="rgba(19, 46, 101, 1)"></circle><circle r="5" cx="252.89" cy="361.17" fill="rgba(19, 46, 101, 1)"></circle><circle r="5" cx="195.89" cy="487.51" fill="rgba(19, 46, 101, 1)"></circle><circle r="5" cx="260.71" cy="711.72" fill="rgba(19, 46, 101, 1)"></circle><circle r="5" cx="340.51" cy="393.9" fill="rgba(19, 46, 101, 1)"></circle><circle r="5" cx="351.12" cy="541.01" fill="rgba(19, 46, 101, 1)"></circle><circle r="5" cx="341.87" cy="637.87" fill="rgba(19, 46, 101, 1)"></circle><circle r="5" cx="523.61" cy="389.1" fill="rgba(19, 46, 101, 1)"></circle><circle r="5" cx="487.56" cy="535.2" fill="rgba(19, 46, 101, 1)"></circle><circle r="5" cx="550.37" cy="673.34" fill="rgba(19, 46, 101, 1)"></circle><circle r="5" cx="662.56" cy="238.06" fill="rgba(19, 46, 101, 1)"></circle><circle r="5" cx="682.35" cy="411.65" fill="rgba(19, 46, 101, 1)"></circle><circle r="5" cx="698.37" cy="497.17" fill="rgba(19, 46, 101, 1)"></circle><circle r="5" cx="683.72" cy="664.23" fill="rgba(19, 46, 101, 1)"></circle><circle r="5" cx="847.28" cy="235.86" fill="rgba(19, 46, 101, 1)"></circle><circle r="5" cx="854.11" cy="539.82" fill="rgba(19, 46, 101, 1)"></circle><circle r="5" cx="973.18" cy="-97.86" fill="rgba(19, 46, 101, 1)"></circle><circle r="5" cx="986.77" cy="65.68" fill="rgba(19, 46, 101, 1)"></circle><circle r="5" cx="960.37" cy="259.23" fill="rgba(19, 46, 101, 1)"></circle><circle r="5" cx="996.76" cy="412.41" fill="rgba(19, 46, 101, 1)"></circle><circle r="5" cx="979.97" cy="520.28" fill="rgba(19, 46, 101, 1)"></circle><circle r="5" cx="944.8" cy="684.8" fill="rgba(19, 46, 101, 1)"></circle><circle r="5" cx="1102.07" cy="-85.71" fill="rgba(19, 46, 101, 1)"></circle><circle r="5" cx="1094.2" cy="46.73" fill="rgba(19, 46, 101, 1)"></circle><circle r="5" cx="1147.03" cy="261.21" fill="rgba(19, 46, 101, 1)"></circle><circle r="5" cx="1122.21" cy="370.16" fill="rgba(19, 46, 101, 1)"></circle><circle r="5" cx="1147.37" cy="556.14" fill="rgba(19, 46, 101, 1)"></circle><circle r="5" cx="1095.18" cy="692.34" fill="rgba(19, 46, 101, 1)"></circle><circle r="5" cx="1286.77" cy="-56.81" fill="rgba(19, 46, 101, 1)"></circle><circle r="5" cx="1241.19" cy="102.19" fill="rgba(19, 46, 101, 1)"></circle><circle r="5" cx="1242.18" cy="260.53" fill="rgba(19, 46, 101, 1)"></circle><circle r="5" cx="1263.68" cy="402.37" fill="rgba(19, 46, 101, 1)"></circle><circle r="5" cx="1299.82" cy="561.38" fill="rgba(19, 46, 101, 1)"></circle><circle r="5" cx="1273.58" cy="688" fill="rgba(19, 46, 101, 1)"></circle><circle r="5" cx="1444.19" cy="-66.98" fill="rgba(19, 46, 101, 1)"></circle><circle r="5" cx="1441.98" cy="64.64" fill="rgba(19, 46, 101, 1)"></circle><circle r="5" cx="1400.36" cy="201.75" fill="rgba(19, 46, 101, 1)"></circle><circle r="5" cx="1450.58" cy="412" fill="rgba(19, 46, 101, 1)"></circle><circle r="5" cx="1412.58" cy="546.44" fill="rgba(19, 46, 101, 1)"></circle><circle r="5" cx="1396.33" cy="687.54" fill="rgba(19, 46, 101, 1)"></circle><circle r="5" cx="1590.38" cy="-90.51" fill="rgba(19, 46, 101, 1)"></circle><circle r="5" cx="1611.76" cy="61.32" fill="rgba(19, 46, 101, 1)"></circle><circle r="5" cx="1562.53" cy="218.55" fill="rgba(19, 46, 101, 1)"></circle><circle r="5" cx="1586.3" cy="354.34" fill="rgba(19, 46, 101, 1)"></circle><circle r="5" cx="1558.74" cy="514.72" fill="rgba(19, 46, 101, 1)"></circle><circle r="5" cx="1581.91" cy="653.12" fill="rgba(19, 46, 101, 1)"></circle><path d="M-111.46 498.81L-111.46 498.81" stroke="hsl(228.5, 77.2%, 51.5%)" stroke-width="1.5"></path><path d="M-111.46 498.81L77 494.57" stroke="hsl(228.5, 77.2%, 51.5%)" stroke-width="1.5"></path><path d="M-111.46 498.81L65.15 638.08" stroke="hsl(228.5, 77.2%, 51.5%)" stroke-width="1.5"></path><path d="M-111.46 498.81L236.88 488.35" stroke="hsl(228.5, 77.2%, 51.5%)" stroke-width="1.5"></path><path d="M-111.46 498.81L260.16 647.14" stroke="hsl(228.5, 77.2%, 51.5%)" stroke-width="1.5"></path><path d="M77 494.57L77 494.57" stroke="hsl(228.5, 77.2%, 51.5%)" stroke-width="1.5"></path><path d="M77 494.57L65.15 638.08" stroke="hsl(228.5, 77.2%, 51.5%)" stroke-width="1.5"></path><path d="M77 494.57L236.88 488.35" stroke="hsl(228.5, 77.2%, 51.5%)" stroke-width="1.5"></path><path d="M77 494.57L260.16 647.14" stroke="hsl(228.5, 77.2%, 51.5%)" stroke-width="1.5"></path><path d="M65.15 638.08L65.15 638.08" stroke="hsl(228.5, 77.2%, 51.5%)" stroke-width="1.5"></path><path d="M65.15 638.08L260.16 647.14" stroke="hsl(228.5, 77.2%, 51.5%)" stroke-width="1.5"></path><path d="M65.15 638.08L236.88 488.35" stroke="hsl(228.5, 77.2%, 51.5%)" stroke-width="1.5"></path><path d="M65.15 638.08L381.95 638.84" stroke="hsl(228.5, 77.2%, 51.5%)" stroke-width="1.5"></path><path d="M65.15 638.08L374.76 525.21" stroke="hsl(228.5, 77.2%, 51.5%)" stroke-width="1.5"></path><path d="M236.88 488.35L236.88 488.35" stroke="hsl(228.5, 77.2%, 51.5%)" stroke-width="1.5"></path><path d="M236.88 488.35L374.76 525.21" stroke="hsl(228.5, 77.2%, 51.5%)" stroke-width="1.5"></path><path d="M236.88 488.35L260.16 647.14" stroke="hsl(228.5, 77.2%, 51.5%)" stroke-width="1.5"></path><path d="M236.88 488.35L381.95 638.84" stroke="hsl(228.5, 77.2%, 51.5%)" stroke-width="1.5"></path><path d="M846.75 546.94L846.75 546.94" stroke="hsl(228.5, 77.2%, 51.5%)" stroke-width="1.5"></path><path d="M846.75 546.94L846.87 670.65" stroke="hsl(228.5, 77.2%, 51.5%)" stroke-width="1.5"></path><path d="M846.75 546.94L985.88 536.08" stroke="hsl(228.5, 77.2%, 51.5%)" stroke-width="1.5"></path><path d="M984.81 373.16L984.81 373.16" stroke="hsl(228.5, 77.2%, 51.5%)" stroke-width="1.5"></path><path d="M984.81 373.16L1004.1 246.46" stroke="hsl(228.5, 77.2%, 51.5%)" stroke-width="1.5"></path><path d="M984.81 373.16L1141.44 389.67" stroke="hsl(228.5, 77.2%, 51.5%)" stroke-width="1.5"></path><path d="M984.81 373.16L985.88 536.08" stroke="hsl(228.5, 77.2%, 51.5%)" stroke-width="1.5"></path><path d="M1141.44 389.67L1141.44 389.67" stroke="hsl(228.5, 77.2%, 51.5%)" stroke-width="1.5"></path><path d="M1141.44 389.67L1130.24 545.13" stroke="hsl(228.5, 77.2%, 51.5%)" stroke-width="1.5"></path><path d="M1278.37 216.22L1278.37 216.22" stroke="hsl(228.5, 77.2%, 51.5%)" stroke-width="1.5"></path><path d="M1278.37 216.22L1249.32 110.41" stroke="hsl(228.5, 77.2%, 51.5%)" stroke-width="1.5"></path><path d="M1278.37 216.22L1400.95 255.29" stroke="hsl(228.5, 77.2%, 51.5%)" stroke-width="1.5"></path><path d="M1278.37 216.22L1105.79 233.81" stroke="hsl(228.5, 77.2%, 51.5%)" stroke-width="1.5"></path><path d="M1278.37 216.22L1436.88 67.04" stroke="hsl(228.5, 77.2%, 51.5%)" stroke-width="1.5"></path><path d="M1278.37 216.22L1141.44 389.67" stroke="hsl(228.5, 77.2%, 51.5%)" stroke-width="1.5"></path><path d="M1278.37 216.22L1284.71 -49.3" stroke="hsl(228.5, 77.2%, 51.5%)" stroke-width="1.5"></path><path d="M260.16 647.14L260.16 647.14" stroke="hsl(228.5, 77.2%, 51.5%)" stroke-width="1.5"></path><path d="M260.16 647.14L381.95 638.84" stroke="hsl(228.5, 77.2%, 51.5%)" stroke-width="1.5"></path><path d="M374.76 525.21L374.76 525.21" stroke="hsl(228.5, 77.2%, 51.5%)" stroke-width="1.5"></path><path d="M374.76 525.21L381.95 638.84" stroke="hsl(228.5, 77.2%, 51.5%)" stroke-width="1.5"></path><path d="M374.76 525.21L260.16 647.14" stroke="hsl(228.5, 77.2%, 51.5%)" stroke-width="1.5"></path><path d="M381.95 638.84L381.95 638.84" stroke="hsl(228.5, 77.2%, 51.5%)" stroke-width="1.5"></path><path d="M539.12 561.6L539.12 561.6" stroke="hsl(228.5, 77.2%, 51.5%)" stroke-width="1.5"></path><path d="M539.12 561.6L559.02 704.31" stroke="hsl(228.5, 77.2%, 51.5%)" stroke-width="1.5"></path><path d="M539.12 561.6L694.46 540.59" stroke="hsl(228.5, 77.2%, 51.5%)" stroke-width="1.5"></path><path d="M539.12 561.6L374.76 525.21" stroke="hsl(228.5, 77.2%, 51.5%)" stroke-width="1.5"></path><path d="M539.12 561.6L638.32 698.16" stroke="hsl(228.5, 77.2%, 51.5%)" stroke-width="1.5"></path><path d="M539.12 561.6L381.95 638.84" stroke="hsl(228.5, 77.2%, 51.5%)" stroke-width="1.5"></path><path d="M539.12 561.6L702.48 356.54" stroke="hsl(228.5, 77.2%, 51.5%)" stroke-width="1.5"></path><path d="M559.02 704.31L559.02 704.31" stroke="hsl(228.5, 77.2%, 51.5%)" stroke-width="1.5"></path><path d="M559.02 704.31L638.32 698.16" stroke="hsl(228.5, 77.2%, 51.5%)" stroke-width="1.5"></path><path d="M559.02 704.31L381.95 638.84" stroke="hsl(228.5, 77.2%, 51.5%)" stroke-width="1.5"></path><path d="M559.02 704.31L694.46 540.59" stroke="hsl(228.5, 77.2%, 51.5%)" stroke-width="1.5"></path><path d="M559.02 704.31L374.76 525.21" stroke="hsl(228.5, 77.2%, 51.5%)" stroke-width="1.5"></path><path d="M702.48 356.54L702.48 356.54" stroke="hsl(228.5, 77.2%, 51.5%)" stroke-width="1.5"></path><path d="M702.48 356.54L694.46 540.59" stroke="hsl(228.5, 77.2%, 51.5%)" stroke-width="1.5"></path><path d="M702.48 356.54L846.75 546.94" stroke="hsl(228.5, 77.2%, 51.5%)" stroke-width="1.5"></path><path d="M694.46 540.59L694.46 540.59" stroke="hsl(228.5, 77.2%, 51.5%)" stroke-width="1.5"></path><path d="M694.46 540.59L846.75 546.94" stroke="hsl(228.5, 77.2%, 51.5%)" stroke-width="1.5"></path><path d="M694.46 540.59L638.32 698.16" stroke="hsl(228.5, 77.2%, 51.5%)" stroke-width="1.5"></path><path d="M694.46 540.59L846.87 670.65" stroke="hsl(228.5, 77.2%, 51.5%)" stroke-width="1.5"></path><path d="M638.32 698.16L638.32 698.16" stroke="hsl(228.5, 77.2%, 51.5%)" stroke-width="1.5"></path><path d="M638.32 698.16L846.87 670.65" stroke="hsl(228.5, 77.2%, 51.5%)" stroke-width="1.5"></path><path d="M638.32 698.16L846.75 546.94" stroke="hsl(228.5, 77.2%, 51.5%)" stroke-width="1.5"></path><path d="M638.32 698.16L381.95 638.84" stroke="hsl(228.5, 77.2%, 51.5%)" stroke-width="1.5"></path><path d="M846.87 670.65L846.87 670.65" stroke="hsl(228.5, 77.2%, 51.5%)" stroke-width="1.5"></path><path d="M846.87 670.65L964.78 683.14" stroke="hsl(228.5, 77.2%, 51.5%)" stroke-width="1.5"></path><path d="M1004.1 246.46L1004.1 246.46" stroke="hsl(228.5, 77.2%, 51.5%)" stroke-width="1.5"></path><path d="M1004.1 246.46L1105.79 233.81" stroke="hsl(228.5, 77.2%, 51.5%)" stroke-width="1.5"></path><path d="M1004.1 246.46L1141.44 389.67" stroke="hsl(228.5, 77.2%, 51.5%)" stroke-width="1.5"></path><path d="M1004.1 246.46L1278.37 216.22" stroke="hsl(228.5, 77.2%, 51.5%)" stroke-width="1.5"></path><path d="M1004.1 246.46L1249.32 110.41" stroke="hsl(228.5, 77.2%, 51.5%)" stroke-width="1.5"></path><path d="M985.88 536.08L985.88 536.08" stroke="hsl(228.5, 77.2%, 51.5%)" stroke-width="1.5"></path><path d="M985.88 536.08L1130.24 545.13" stroke="hsl(228.5, 77.2%, 51.5%)" stroke-width="1.5"></path><path d="M985.88 536.08L964.78 683.14" stroke="hsl(228.5, 77.2%, 51.5%)" stroke-width="1.5"></path><path d="M985.88 536.08L1109.43 673.96" stroke="hsl(228.5, 77.2%, 51.5%)" stroke-width="1.5"></path><path d="M985.88 536.08L846.87 670.65" stroke="hsl(228.5, 77.2%, 51.5%)" stroke-width="1.5"></path><path d="M964.78 683.14L964.78 683.14" stroke="hsl(228.5, 77.2%, 51.5%)" stroke-width="1.5"></path><path d="M964.78 683.14L1109.43 673.96" stroke="hsl(228.5, 77.2%, 51.5%)" stroke-width="1.5"></path><path d="M964.78 683.14L846.75 546.94" stroke="hsl(228.5, 77.2%, 51.5%)" stroke-width="1.5"></path><path d="M964.78 683.14L1130.24 545.13" stroke="hsl(228.5, 77.2%, 51.5%)" stroke-width="1.5"></path><path d="M1160.71 -74.86L1160.71 -74.86" stroke="hsl(228.5, 77.2%, 51.5%)" stroke-width="1.5"></path><path d="M1160.71 -74.86L1284.71 -49.3" stroke="hsl(228.5, 77.2%, 51.5%)" stroke-width="1.5"></path><path d="M1160.71 -74.86L1249.32 110.41" stroke="hsl(228.5, 77.2%, 51.5%)" stroke-width="1.5"></path><path d="M1160.71 -74.86L1416.64 -91.45" stroke="hsl(228.5, 77.2%, 51.5%)" stroke-width="1.5"></path><path d="M1160.71 -74.86L1436.88 67.04" stroke="hsl(228.5, 77.2%, 51.5%)" stroke-width="1.5"></path><path d="M1160.71 -74.86L1105.79 233.81" stroke="hsl(228.5, 77.2%, 51.5%)" stroke-width="1.5"></path><path d="M1160.71 -74.86L1278.37 216.22" stroke="hsl(228.5, 77.2%, 51.5%)" stroke-width="1.5"></path><path d="M1105.79 233.81L1105.79 233.81" stroke="hsl(228.5, 77.2%, 51.5%)" stroke-width="1.5"></path><path d="M1105.79 233.81L1141.44 389.67" stroke="hsl(228.5, 77.2%, 51.5%)" stroke-width="1.5"></path><path d="M1105.79 233.81L984.81 373.16" stroke="hsl(228.5, 77.2%, 51.5%)" stroke-width="1.5"></path><path d="M1105.79 233.81L1249.32 110.41" stroke="hsl(228.5, 77.2%, 51.5%)" stroke-width="1.5"></path><path d="M1130.24 545.13L1130.24 545.13" stroke="hsl(228.5, 77.2%, 51.5%)" stroke-width="1.5"></path><path d="M1130.24 545.13L1109.43 673.96" stroke="hsl(228.5, 77.2%, 51.5%)" stroke-width="1.5"></path><path d="M1130.24 545.13L1287.95 512.03" stroke="hsl(228.5, 77.2%, 51.5%)" stroke-width="1.5"></path><path d="M1109.43 673.96L1109.43 673.96" stroke="hsl(228.5, 77.2%, 51.5%)" stroke-width="1.5"></path><path d="M1109.43 673.96L1300.26 655.38" stroke="hsl(228.5, 77.2%, 51.5%)" stroke-width="1.5"></path><path d="M1109.43 673.96L1287.95 512.03" stroke="hsl(228.5, 77.2%, 51.5%)" stroke-width="1.5"></path><path d="M1284.71 -49.3L1284.71 -49.3" stroke="hsl(228.5, 77.2%, 51.5%)" stroke-width="1.5"></path><path d="M1284.71 -49.3L1416.64 -91.45" stroke="hsl(228.5, 77.2%, 51.5%)" stroke-width="1.5"></path><path d="M1284.71 -49.3L1249.32 110.41" stroke="hsl(228.5, 77.2%, 51.5%)" stroke-width="1.5"></path><path d="M1284.71 -49.3L1436.88 67.04" stroke="hsl(228.5, 77.2%, 51.5%)" stroke-width="1.5"></path><path d="M1249.32 110.41L1249.32 110.41" stroke="hsl(228.5, 77.2%, 51.5%)" stroke-width="1.5"></path><path d="M1287.95 512.03L1287.95 512.03" stroke="hsl(228.5, 77.2%, 51.5%)" stroke-width="1.5"></path><path d="M1287.95 512.03L1422.02 527.85" stroke="hsl(228.5, 77.2%, 51.5%)" stroke-width="1.5"></path><path d="M1287.95 512.03L1300.26 655.38" stroke="hsl(228.5, 77.2%, 51.5%)" stroke-width="1.5"></path><path d="M1300.26 655.38L1300.26 655.38" stroke="hsl(228.5, 77.2%, 51.5%)" stroke-width="1.5"></path><path d="M1300.26 655.38L1388.2 689.37" stroke="hsl(228.5, 77.2%, 51.5%)" stroke-width="1.5"></path><path d="M1300.26 655.38L1422.02 527.85" stroke="hsl(228.5, 77.2%, 51.5%)" stroke-width="1.5"></path><path d="M1300.26 655.38L1130.24 545.13" stroke="hsl(228.5, 77.2%, 51.5%)" stroke-width="1.5"></path><path d="M1416.64 -91.45L1416.64 -91.45" stroke="hsl(228.5, 77.2%, 51.5%)" stroke-width="1.5"></path><path d="M1416.64 -91.45L1436.88 67.04" stroke="hsl(228.5, 77.2%, 51.5%)" stroke-width="1.5"></path><path d="M1416.64 -91.45L1605.48 -111.66" stroke="hsl(228.5, 77.2%, 51.5%)" stroke-width="1.5"></path><path d="M1416.64 -91.45L1570.94 61.17" stroke="hsl(228.5, 77.2%, 51.5%)" stroke-width="1.5"></path><path d="M1436.88 67.04L1436.88 67.04" stroke="hsl(228.5, 77.2%, 51.5%)" stroke-width="1.5"></path><path d="M1436.88 67.04L1570.94 61.17" stroke="hsl(228.5, 77.2%, 51.5%)" stroke-width="1.5"></path><path d="M1400.95 255.29L1400.95 255.29" stroke="hsl(228.5, 77.2%, 51.5%)" stroke-width="1.5"></path><path d="M1422.02 527.85L1422.02 527.85" stroke="hsl(228.5, 77.2%, 51.5%)" stroke-width="1.5"></path><path d="M1422.02 527.85L1388.2 689.37" stroke="hsl(228.5, 77.2%, 51.5%)" stroke-width="1.5"></path><path d="M1388.2 689.37L1388.2 689.37" stroke="hsl(228.5, 77.2%, 51.5%)" stroke-width="1.5"></path><path d="M1388.2 689.37L1579.27 671.28" stroke="hsl(228.5, 77.2%, 51.5%)" stroke-width="1.5"></path><path d="M1388.2 689.37L1287.95 512.03" stroke="hsl(228.5, 77.2%, 51.5%)" stroke-width="1.5"></path><path d="M1388.2 689.37L1109.43 673.96" stroke="hsl(228.5, 77.2%, 51.5%)" stroke-width="1.5"></path><path d="M1605.48 -111.66L1605.48 -111.66" stroke="hsl(228.5, 77.2%, 51.5%)" stroke-width="1.5"></path><path d="M1605.48 -111.66L1570.94 61.17" stroke="hsl(228.5, 77.2%, 51.5%)" stroke-width="1.5"></path><path d="M1605.48 -111.66L1436.88 67.04" stroke="hsl(228.5, 77.2%, 51.5%)" stroke-width="1.5"></path><path d="M1570.94 61.17L1570.94 61.17" stroke="hsl(228.5, 77.2%, 51.5%)" stroke-width="1.5"></path><path d="M1570.94 61.17L1598.95 212.47" stroke="hsl(228.5, 77.2%, 51.5%)" stroke-width="1.5"></path><path d="M1598.95 212.47L1598.95 212.47" stroke="hsl(228.5, 77.2%, 51.5%)" stroke-width="1.5"></path><path d="M1598.95 212.47L1581.67 357.85" stroke="hsl(228.5, 77.2%, 51.5%)" stroke-width="1.5"></path><path d="M1598.95 212.47L1400.95 255.29" stroke="hsl(228.5, 77.2%, 51.5%)" stroke-width="1.5"></path><path d="M1581.67 357.85L1581.67 357.85" stroke="hsl(228.5, 77.2%, 51.5%)" stroke-width="1.5"></path><path d="M1581.67 357.85L1400.95 255.29" stroke="hsl(228.5, 77.2%, 51.5%)" stroke-width="1.5"></path><path d="M1581.67 357.85L1422.02 527.85" stroke="hsl(228.5, 77.2%, 51.5%)" stroke-width="1.5"></path><path d="M1581.67 357.85L1570.94 61.17" stroke="hsl(228.5, 77.2%, 51.5%)" stroke-width="1.5"></path><path d="M1579.27 671.28L1579.27 671.28" stroke="hsl(228.5, 77.2%, 51.5%)" stroke-width="1.5"></path><path d="M1579.27 671.28L1422.02 527.85" stroke="hsl(228.5, 77.2%, 51.5%)" stroke-width="1.5"></path><path d="M1579.27 671.28L1300.26 655.38" stroke="hsl(228.5, 77.2%, 51.5%)" stroke-width="1.5"></path><path d="M1579.27 671.28L1581.67 357.85" stroke="hsl(228.5, 77.2%, 51.5%)" stroke-width="1.5"></path><path d="M1579.27 671.28L1287.95 512.03" stroke="hsl(228.5, 77.2%, 51.5%)" stroke-width="1.5"></path><path d="M1579.27 671.28L1400.95 255.29" stroke="hsl(228.5, 77.2%, 51.5%)" stroke-width="1.5"></path><circle r="25" cx="-111.46" cy="498.81" fill="url(#SvgjsRadialGradient1037)"></circle><circle r="25" cx="77" cy="494.57" fill="url(#SvgjsRadialGradient1037)"></circle><circle r="25" cx="65.15" cy="638.08" fill="url(#SvgjsRadialGradient1037)"></circle><circle r="25" cx="236.88" cy="488.35" fill="url(#SvgjsRadialGradient1037)"></circle><circle r="25" cx="846.75" cy="546.94" fill="url(#SvgjsRadialGradient1037)"></circle><circle r="25" cx="984.81" cy="373.16" fill="url(#SvgjsRadialGradient1037)"></circle><circle r="25" cx="1141.44" cy="389.67" fill="url(#SvgjsRadialGradient1037)"></circle><circle r="25" cx="1278.37" cy="216.22" fill="url(#SvgjsRadialGradient1037)"></circle><circle r="5" cx="260.16" cy="647.14" fill="#8b9ad9"></circle><circle r="5" cx="374.76" cy="525.21" fill="#8b9ad9"></circle><circle r="5" cx="381.95" cy="638.84" fill="#8b9ad9"></circle><circle r="5" cx="539.12" cy="561.6" fill="#8b9ad9"></circle><circle r="5" cx="559.02" cy="704.31" fill="#8b9ad9"></circle><circle r="5" cx="702.48" cy="356.54" fill="#8b9ad9"></circle><circle r="5" cx="694.46" cy="540.59" fill="#8b9ad9"></circle><circle r="5" cx="638.32" cy="698.16" fill="#8b9ad9"></circle><circle r="5" cx="846.87" cy="670.65" fill="#8b9ad9"></circle><circle r="5" cx="1004.1" cy="246.46" fill="#8b9ad9"></circle><circle r="5" cx="985.88" cy="536.08" fill="#8b9ad9"></circle><circle r="5" cx="964.78" cy="683.14" fill="#8b9ad9"></circle><circle r="5" cx="1160.71" cy="-74.86" fill="#8b9ad9"></circle><circle r="5" cx="1105.79" cy="233.81" fill="#8b9ad9"></circle><circle r="5" cx="1130.24" cy="545.13" fill="#8b9ad9"></circle><circle r="5" cx="1109.43" cy="673.96" fill="#8b9ad9"></circle><circle r="5" cx="1284.71" cy="-49.3" fill="#8b9ad9"></circle><circle r="5" cx="1249.32" cy="110.41" fill="#8b9ad9"></circle><circle r="5" cx="1287.95" cy="512.03" fill="#8b9ad9"></circle><circle r="5" cx="1300.26" cy="655.38" fill="#8b9ad9"></circle><circle r="5" cx="1416.64" cy="-91.45" fill="#8b9ad9"></circle><circle r="5" cx="1436.88" cy="67.04" fill="#8b9ad9"></circle><circle r="5" cx="1400.95" cy="255.29" fill="#8b9ad9"></circle><circle r="5" cx="1422.02" cy="527.85" fill="#8b9ad9"></circle><circle r="5" cx="1388.2" cy="689.37" fill="#8b9ad9"></circle><circle r="5" cx="1605.48" cy="-111.66" fill="#8b9ad9"></circle><circle r="5" cx="1570.94" cy="61.17" fill="#8b9ad9"></circle><circle r="5" cx="1598.95" cy="212.47" fill="#8b9ad9"></circle><circle r="5" cx="1581.67" cy="357.85" fill="#8b9ad9"></circle><circle r="5" cx="1579.27" cy="671.28" fill="#8b9ad9"></circle></g><defs><mask id="SvgjsMask1036"><rect width="1440" height="560" fill="#ffffff"></rect></mask><radialGradient id="SvgjsRadialGradient1037"><stop stop-color="#ffffff" offset="0.1"></stop><stop stop-color="rgba(23, 53, 179, 1)" offset="0.2"></stop><stop stop-color="rgba(23, 53, 179, 0)" offset="1"></stop></radialGradient></defs></svg>